<svg xmlns="http://www.w3.org/2000/svg" width="24" height="24" viewBox="0 0 24 24" fill="none">
  <g clip-path="url(#clip0_358_448)">
    <path d="M14.5568 13.5571C14.3233 13.95 14.0031 14.2845 13.6206 14.5348C13.2381 14.7851 12.8035 14.9448 12.35 15.0016C11.8964 15.0584 11.4358 15.0108 11.0035 14.8625C10.5711 14.7142 10.1783 14.4691 9.85505 14.1459C9.53182 13.8227 9.2867 13.4299 9.1384 12.9975C8.9901 12.5651 8.94253 12.1045 8.99933 11.651C9.05613 11.1974 9.2158 10.7628 9.46614 10.3803C9.71648 9.99786 10.0509 9.67763 10.4438 9.44409" stroke="#212121" stroke-width="1.5" stroke-linecap="round" stroke-linejoin="round"/>
    <path d="M17.9939 16.9939C16.2699 18.3016 14.1638 19.0064 11.9999 18.9999C10.242 19.0312 8.51018 18.5716 6.99909 17.6728C5.48799 16.774 4.25751 15.4716 3.44593 13.9119C3.15258 13.3172 3 12.663 3 11.9999C3 11.3368 3.15258 10.6826 3.44593 10.0879C4.27391 8.43924 5.59377 7.08862 7.22293 6.2229" stroke="#212121" stroke-width="1.5" stroke-linecap="round" stroke-linejoin="round"/>
    <path d="M20.424 14.134C20.464 14.058 20.516 13.989 20.554 13.912C20.8473 13.3173 20.9999 12.6631 20.9999 12C20.9999 11.3369 20.8473 10.6827 20.554 10.088C19.7424 8.52835 18.5119 7.22592 17.0008 6.32711C15.4897 5.4283 13.7579 4.96872 12 5.00003C11.775 5.00003 11.557 5.03003 11.335 5.04503" stroke="#212121" stroke-width="1.5" stroke-linecap="round" stroke-linejoin="round"/>
    <path d="M21 20L4 3" stroke="#212121" stroke-width="1.5" stroke-linecap="round" stroke-linejoin="round"/>
  </g>
  <defs>
    <clipPath id="clip0_358_448">
      <rect width="24" height="24" fill="white"/>
    </clipPath>
  </defs>
</svg>