<svg xmlns="http://www.w3.org/2000/svg" width="24" height="24" viewBox="0 0 24 24" fill="none">
  <g clip-path="url(#clip0_358_484)">
    <path d="M9.51001 18V18.512C9.51001 18.8389 9.57443 19.1626 9.69959 19.4646C9.82475 19.7666 10.0082 20.0409 10.2394 20.272C10.4707 20.503 10.7452 20.6863 11.0473 20.8112C11.3494 20.9361 11.6731 21.0003 12 21C12.327 21.0001 12.6507 20.9358 12.9528 20.8108C13.2549 20.6858 13.5294 20.5025 13.7606 20.2713C13.9919 20.0402 14.1753 19.7658 14.3005 19.4637C14.4256 19.1617 14.49 18.8379 14.49 18.511V18" stroke="#666666" stroke-width="1.5" stroke-linecap="round" stroke-linejoin="round"/>
    <path d="M17.947 18C19.081 18 20 17.08 20 15.947C20 15.371 19.77 14.819 19.364 14.411L18 13.048V9C18 7.4087 17.3679 5.88258 16.2426 4.75736C15.1174 3.63214 13.5913 3 12 3C10.4087 3 8.88258 3.63214 7.75736 4.75736C6.63214 5.88258 6 7.4087 6 9V13.048L4.636 14.411C4.229 14.819 4 15.371 4 15.947C4 17.081 4.92 18 6.053 18H17.947Z" stroke="#666666" stroke-width="1.5" stroke-linecap="round" stroke-linejoin="round"/>
    <!-- <rect x="18" width="6" height="6" rx="3" fill="#FF2618"/> -->
  </g>
  <defs>
    <clipPath id="clip0_358_484">
      <rect width="24" height="24" fill="white"/>
    </clipPath>
  </defs>
</svg>