<svg xmlns="http://www.w3.org/2000/svg" width="24" height="24" viewBox="0 0 24 24" fill="none">
  <g clip-path="url(#clip0_358_1734)">
    <path d="M12 21C9.61305 21 7.32387 20.0518 5.63604 18.364C3.94821 16.6761 3 14.3869 3 12C3 9.61305 3.94821 7.32387 5.63604 5.63604C7.32387 3.94821 9.61305 3 12 3C14.3869 3 16.6761 3.94821 18.364 5.63604C20.0518 7.32387 21 9.61305 21 12C21 14.3869 20.0518 16.6761 18.364 18.364C16.6761 20.0518 14.3869 21 12 21Z" stroke="#067787" stroke-width="1.5" stroke-linecap="round" stroke-linejoin="round"/>
    <path d="M16 10L11 15L8 12" stroke="#067787" stroke-width="1.5" stroke-linecap="round" stroke-linejoin="round"/>
  </g>
  <defs>
    <clipPath id="clip0_358_1734">
      <rect width="24" height="24" fill="white"/>
    </clipPath>
  </defs>
</svg>