<svg xmlns="http://www.w3.org/2000/svg" width="24" height="24" viewBox="0 0 24 24" fill="none">
  <g clip-path="url(#clip0_358_1059)">
    <path d="M2 19C2 17.9391 2.42143 16.9217 3.17157 16.1716C3.92172 15.4214 4.93913 15 6 15H10C11.0609 15 12.0783 15.4214 12.8284 16.1716C13.5786 16.9217 14 17.9391 14 19" stroke="#010C0D" stroke-width="1.5" stroke-linecap="round" stroke-linejoin="round"/>
    <path d="M10.475 6.02493C11.1314 6.68135 11.5002 7.57163 11.5002 8.49993C11.5002 9.42824 11.1314 10.3185 10.475 10.9749C9.81858 11.6313 8.9283 12.0001 8 12.0001C7.07169 12.0001 6.18141 11.6313 5.525 10.9749C4.86858 10.3185 4.49982 9.42824 4.49982 8.49993C4.49982 7.57163 4.86858 6.68135 5.525 6.02493C6.18141 5.36852 7.07169 4.99976 8 4.99976C8.9283 4.99976 9.81858 5.36852 10.475 6.02493Z" stroke="#010C0D" stroke-width="1.5" stroke-linecap="round" stroke-linejoin="round"/>
    <path d="M16 14H19C19.7956 14 20.5587 14.3161 21.1213 14.8787C21.6839 15.4413 22 16.2044 22 17" stroke="#010C0D" stroke-width="1.5" stroke-linecap="round" stroke-linejoin="round"/>
    <path d="M19.268 6.73184C19.7369 7.20074 20.0004 7.83671 20.0004 8.49984C20.0004 9.16297 19.7369 9.79894 19.268 10.2678C18.7991 10.7367 18.1632 11.0002 17.5 11.0002C16.8369 11.0002 16.2009 10.7367 15.732 10.2678C15.4998 10.0357 15.3157 9.76003 15.19 9.45668C15.0644 9.15332 14.9997 8.82819 14.9997 8.49984C14.9997 7.83671 15.2631 7.20074 15.732 6.73184C16.2009 6.26294 16.8369 5.99951 17.5 5.99951C17.8284 5.99951 18.1535 6.06418 18.4569 6.18984C18.7602 6.31549 19.0358 6.49966 19.268 6.73184Z" stroke="#010C0D" stroke-width="1.5" stroke-linecap="round" stroke-linejoin="round"/>
  </g>
  <defs>
    <clipPath id="clip0_358_1059">
      <rect width="24" height="24" fill="white"/>
    </clipPath>
  </defs>
</svg>