<svg xmlns="http://www.w3.org/2000/svg" width="24" height="24" viewBox="0 0 24 24" fill="none">
  <g clip-path="url(#clip0_310_1447)">
    <rect width="24" height="24" rx="4" fill="#404040"/>
    <path d="M12.875 16.9444H6.75C6.28587 16.9444 5.84075 16.7601 5.51256 16.4319C5.18437 16.1037 5 15.6586 5 15.1944V9.75C5 9.28587 5.18437 8.84075 5.51256 8.51256C5.84075 8.18437 6.28587 8 6.75 8H12.875C13.3391 8 13.7842 8.18437 14.1124 8.51256C14.4406 8.84075 14.625 9.28587 14.625 9.75V15.1944C14.625 15.6586 14.4406 16.1037 14.1124 16.4319C13.7842 16.7601 13.3391 16.9444 12.875 16.9444Z" stroke="#F5F5F5" stroke-width="1.5" stroke-linecap="round" stroke-linejoin="round"/>
    <path d="M14.625 13.3259L17.5767 15.7012C18.1491 16.1624 19 15.7549 19 15.0199V9.92544C19 9.19044 18.1491 8.78289 17.5767 9.24411L14.625 11.6194" stroke="#F5F5F5" stroke-width="1.5" stroke-linecap="round" stroke-linejoin="round"/>
  </g>
  <defs>
    <clipPath id="clip0_310_1447">
      <rect width="24" height="24" rx="4" fill="white"/>
    </clipPath>
  </defs>
</svg>